<svg xmlns="http://www.w3.org/2000/svg" xmlns:xlink="http://www.w3.org/1999/xlink" viewBox="0 0 70 70"><defs><style>.cls-1{fill:url(#Degradado_sin_nombre_6);}.cls-2{fill:url(#Degradado_sin_nombre_6-2);}.cls-3{fill:#5865ac;}.cls-4{fill:#e94b4f;}.cls-5{fill:#a0587e;}.cls-6{fill:none;}</style><linearGradient id="Degradado_sin_nombre_6" x1="10.65" y1="27.8" x2="67.65" y2="27.8" gradientUnits="userSpaceOnUse"><stop offset="0" stop-color="#e94b4f"/><stop offset="1" stop-color="#5865ad"/></linearGradient><linearGradient id="Degradado_sin_nombre_6-2" x1="2.87" y1="51.42" x2="55.31" y2="51.42" xlink:href="#Degradado_sin_nombre_6"/></defs><g id="Capa_2" data-name="Capa 2"><g id="Capa_1-2" data-name="Capa 1"><path class="cls-1" d="M23.38,24.42a2.9,2.9,0,0,1,2.25-.56c.34,0,.47-.1.51-.45a7.78,7.78,0,0,1,6.87-7,2.83,2.83,0,0,0,.37-.08,10.86,10.86,0,0,1,3.07-8.93,10.3,10.3,0,0,1,5.6-3,10.68,10.68,0,0,1,12,6.59c.91-.09,1.81-.25,2.71-.27a10.67,10.67,0,0,1,3.41,20.86,11.64,11.64,0,0,1-3.16.49c-2.86.07-5.72,0-8.57,0h-.75V43.84a2.68,2.68,0,0,1,0,.49A.66.66,0,0,1,47,45a.67.67,0,0,1-.71-.62,2.66,2.66,0,0,1,0-.49V26.55c0-.85-.33-1.21-1.18-1.21-2.67,0-5.35,0-8,0-.86,0-1.17.36-1.17,1.27q0,11.8,0,23.6a1.41,1.41,0,0,1-.23.85.93.93,0,0,1-.8.25c-.22-.07-.37-.41-.5-.67a1.28,1.28,0,0,1,0-.48V26.57c0-.92-.35-1.24-1.28-1.24H25.23c-1,0-1.22.28-1.22,1.24,0,7.85,0,15.69,0,23.54a1.48,1.48,0,0,1-.19.87,1,1,0,0,1-.81.34c-.23-.06-.4-.44-.54-.7a1.09,1.09,0,0,1,0-.48V26.76c0-1.17-.26-1.43-1.45-1.43H13.51c-1.15,0-1.43.29-1.43,1.46,0,5.68,0,11.36,0,17,0,.14,0,.29,0,.44,0,.57-.27.91-.71.9s-.71-.36-.71-.92c0-6,0-12,0-18a2.37,2.37,0,0,1,2.29-2.4q4.4-.06,8.79,0A6.29,6.29,0,0,1,23.38,24.42Zm4.17-.57h.67c1.65,0,3.31,0,5,0a8.42,8.42,0,0,1,1.66.42,1.14,1.14,0,0,0,.52,0,7.53,7.53,0,0,1,1.54-.42c2.73,0,5.46,0,8.19,0a2.43,2.43,0,0,1,2.57,2.62v4.24h.6c3,0,5.94,0,8.9,0a9.27,9.27,0,1,0-3-18.11c-.82.23-1.08.09-1.38-.73a9.29,9.29,0,0,0-18,4.41c.19,1.46.18,1.46-1.32,1.57a6.2,6.2,0,0,0-5.23,3.42A5.35,5.35,0,0,0,27.55,23.85Z"/><path class="cls-2" d="M4.86,46.15h5.45c2.1,0,4.19.05,6.28,0a2.84,2.84,0,0,1,3,3,11.45,11.45,0,0,0,0,1.31,1.73,1.73,0,0,0,1.68,1.8h.65c4.81,0,9.61,0,14.42,0,1.43,0,2.38-.71,2.25-2.23a11,11,0,0,1,0-1.15,2.71,2.71,0,0,1,2.77-2.77c3.71,0,7.42,0,11.14,0h.75c-.11-.22-.19-.39-.28-.54-1.4-2.39-2.81-4.77-4.2-7.15a1.13,1.13,0,0,1-.19-.71.77.77,0,0,1,.48-.51,1.06,1.06,0,0,1,.76.25,5.27,5.27,0,0,1,.6,1l4.77,8a1.17,1.17,0,0,1,.12.57c0,5.13,0,10.26,0,15.4a3.47,3.47,0,0,1-2.75,3.18,7.2,7.2,0,0,1-1.14.09q-22.31,0-44.61,0A3.62,3.62,0,0,1,3,62.92a3.58,3.58,0,0,1-.08-.86q0-7.29,0-14.58A2.66,2.66,0,0,1,3.27,46c1.63-2.71,3.23-5.45,4.84-8.17a2.26,2.26,0,0,1,.26-.42.66.66,0,0,1,.92-.18.64.64,0,0,1,.26.94c-.1.19-.22.38-.33.56l-4,6.81ZM4.3,47.58V62a2.08,2.08,0,0,0,2.24,2.26h45A2.06,2.06,0,0,0,53.81,62V48.15c0-.17,0-.35,0-.51a1.3,1.3,0,0,0-.14,0c-4.08,0-8.15,0-12.23,0a1.26,1.26,0,0,0-1.27,1.3c0,.53,0,1.06,0,1.59A3.24,3.24,0,0,1,37,53.71q-7.92,0-15.83,0a3.18,3.18,0,0,1-3.08-3.15c0-.43,0-.87,0-1.31,0-1.25-.41-1.67-1.66-1.67H4.3Z"/><path class="cls-3" d="M41.24,34.87c-1,0-1.89,0-2.83,0-.55,0-.87-.29-.85-.72a.69.69,0,0,1,.76-.69q2.94,0,5.88,0a.67.67,0,0,1,.73.71.68.68,0,0,1-.75.7H41.24Z"/><path class="cls-4" d="M17,34.87c-.91,0-1.82,0-2.72,0-.61,0-.92-.25-.93-.69s.31-.74.93-.74c1.84,0,3.84-.21,5.68-.2.6,0,.74.45.75.89s-.3.73-.93.74C18.83,34.88,17.9,34.87,17,34.87Z"/><path class="cls-5" d="M29.13,34.87c-.93,0-1.85,0-2.78,0-.59,0-.91-.26-.91-.71s.32-.71.91-.71h5.56c.59,0,.9.27.9.71s-.3.71-.9.71C31,34.88,30.05,34.87,29.13,34.87Z"/><path class="cls-3" d="M41.24,39c-.93,0-1.85,0-2.78,0-.59,0-.91-.27-.9-.72s.32-.7.92-.7q2.77,0,5.55,0c.6,0,.91.27.9.72s-.3.69-.91.7C43.09,39,42.17,39,41.24,39Z"/><path class="cls-4" d="M17,39c-.91,0-1.82,0-2.73,0-.63,0-.95-.26-.94-.72s.32-.7.91-.71H19.8c.59,0,.9.28.89.72s-.31.69-.91.7C18.85,39,17.92,39,17,39Z"/><path class="cls-5" d="M29.09,39c-.91,0-1.81,0-2.72,0-.6,0-.92-.25-.93-.69s.32-.73.95-.74h5.5c.6,0,.91.25.92.69s-.31.73-.94.73C30.94,39,30,39,29.09,39Z"/><rect class="cls-6" width="70" height="70"/></g></g></svg>