<svg xmlns="http://www.w3.org/2000/svg" xmlns:xlink="http://www.w3.org/1999/xlink" viewBox="0 0 70 70"><defs><style>.cls-1{fill:url(#Degradado_sin_nombre_6);}.cls-2{fill:#e94b4f;}.cls-3{fill:#5865ac;}.cls-4{fill:#a0587e;}.cls-5{fill:url(#Degradado_sin_nombre_6-2);}.cls-6{fill:url(#Degradado_sin_nombre_6-3);}.cls-7{fill:url(#Degradado_sin_nombre_6-4);}.cls-8{fill:none;}</style><linearGradient id="Degradado_sin_nombre_6" x1="8.05" y1="34.91" x2="62.47" y2="34.91" gradientUnits="userSpaceOnUse"><stop offset="0" stop-color="#e94b4f"/><stop offset="1" stop-color="#5865ad"/></linearGradient><linearGradient id="Degradado_sin_nombre_6-2" x1="18.62" y1="14.51" x2="20.59" y2="14.51" xlink:href="#Degradado_sin_nombre_6"/><linearGradient id="Degradado_sin_nombre_6-3" x1="15.22" y1="14.51" x2="17.2" y2="14.51" xlink:href="#Degradado_sin_nombre_6"/><linearGradient id="Degradado_sin_nombre_6-4" x1="11.83" y1="14.51" x2="13.79" y2="14.51" xlink:href="#Degradado_sin_nombre_6"/></defs><g id="Capa_2" data-name="Capa 2"><g id="Capa_1-2" data-name="Capa 1"><path class="cls-1" d="M35.24,59.88H9.48c-1.25,0-1.43-.18-1.43-1.41V11.34c0-1.22.17-1.39,1.37-1.39H61.09c1.23,0,1.38.15,1.38,1.37V58.51c0,1.21-.16,1.37-1.39,1.37ZM9.73,18.38V58.19H60.79V18.38ZM60.8,11.62H9.74v5.05H60.8Z"/><path class="cls-2" d="M22.36,38.35l1.42,1,5.11,3.68c.18.13.44.26.5.44s.21.74.06.92a1.47,1.47,0,0,1-.93.29c-.17,0-.36-.17-.52-.29l-7.22-5.19c-.9-.65-.9-1.13,0-1.79L28,32.25c.15-.11.32-.3.46-.28.35,0,.8.08,1,.31s0,.65-.11,1-.33.29-.51.43L22.94,37.9Z"/><path class="cls-3" d="M46.1,38.32l-6.41-4.61a5.72,5.72,0,0,1-.49-.37A.77.77,0,0,1,39,32.2a.78.78,0,0,1,1.16-.14c.64.43,1.26.89,1.89,1.35l5.61,4c.92.66.92,1.13,0,1.79l-7.22,5.19c-.18.13-.4.33-.59.32a1.32,1.32,0,0,1-.87-.32,1.08,1.08,0,0,1,0-.86c.08-.21.35-.35.55-.5l6-4.36C45.76,38.6,45.9,38.48,46.1,38.32Z"/><path class="cls-4" d="M38,29.47c-.08.31-.12.51-.18.71L33.51,45.57l-.12.39a.78.78,0,0,1-1,.59.76.76,0,0,1-.54-1.07l1.68-6c.92-3.27,1.83-6.54,2.76-9.8A1.42,1.42,0,0,1,36.7,29a1,1,0,0,1,.81-.07C37.74,29,37.87,29.29,38,29.47Z"/><path class="cls-5" d="M20.59,14.47a1,1,0,0,1-2,.06,1,1,0,0,1,2-.06Z"/><path class="cls-6" d="M16.18,15.48a1,1,0,0,1-1-1,1,1,0,1,1,2,.05A1,1,0,0,1,16.18,15.48Z"/><path class="cls-7" d="M12.83,13.53a1,1,0,0,1,1,1,1,1,0,0,1-1,1,1,1,0,0,1-.94-1A1,1,0,0,1,12.83,13.53Z"/><rect class="cls-8" width="70" height="70"/></g></g></svg>