<svg xmlns="http://www.w3.org/2000/svg" xmlns:xlink="http://www.w3.org/1999/xlink" viewBox="0 0 65.73 65.71"><defs><style>.cls-1{fill:url(#Degradado_sin_nombre_6);}.cls-2{fill:url(#Degradado_sin_nombre_6-2);}.cls-3{fill:#5865ad;}.cls-4{fill:#e94b4f;}</style><linearGradient id="Degradado_sin_nombre_6" y1="32.85" x2="65.73" y2="32.85" gradientUnits="userSpaceOnUse"><stop offset="0" stop-color="#e94b4f"/><stop offset="1" stop-color="#5865ad"/></linearGradient><linearGradient id="Degradado_sin_nombre_6-2" x1="18.64" y1="46.38" x2="46.97" y2="46.38" xlink:href="#Degradado_sin_nombre_6"/></defs><g id="Capa_2" data-name="Capa 2"><g id="Capa_1-2" data-name="Capa 1"><path class="cls-1" d="M65.73,32.86A32.87,32.87,0,1,1,32.85,0,32.88,32.88,0,0,1,65.73,32.86Zm-32.85-29a29,29,0,1,0,29,29.28A28.95,28.95,0,0,0,32.88,3.85Z"/><path class="cls-2" d="M32.76,45.6A14.66,14.66,0,0,0,23.47,49a17.1,17.1,0,0,0-1.39,1.3,1.94,1.94,0,0,1-2.8.15,1.86,1.86,0,0,1-.06-2.75A18.5,18.5,0,0,1,29.76,42a17.81,17.81,0,0,1,12.67,2.76,38.32,38.32,0,0,1,3.69,2.66,1.88,1.88,0,0,1,.35,2.85,2,2,0,0,1-2.85.07A19.38,19.38,0,0,0,35,45.89C34.24,45.73,33.42,45.68,32.76,45.6Z"/><path class="cls-3" d="M49.1,26.64a4,4,0,1,1-4-3.95A4,4,0,0,1,49.1,26.64Z"/><path class="cls-4" d="M24.54,26.67a4,4,0,1,1-3.92-4A4,4,0,0,1,24.54,26.67Z"/></g></g></svg>