<svg xmlns="http://www.w3.org/2000/svg" xmlns:xlink="http://www.w3.org/1999/xlink" viewBox="0 0 70 70"><defs><style>.cls-1{fill:none;}.cls-2{fill:url(#Degradado_sin_nombre_6);}.cls-3{fill:#a0587e;}.cls-4{fill:#e94b4f;}.cls-5{fill:#5865ac;}</style><linearGradient id="Degradado_sin_nombre_6" x1="19.12" y1="35.3" x2="52.19" y2="35.3" gradientUnits="userSpaceOnUse"><stop offset="0" stop-color="#e94b4f"/><stop offset="1" stop-color="#5865ad"/></linearGradient></defs><g id="Capa_2" data-name="Capa 2"><g id="Capa_1-2" data-name="Capa 1"><rect class="cls-1" width="70" height="70"/><path class="cls-2" d="M51.86,10.67a6.27,6.27,0,0,0-6.51-5.44H26a6.35,6.35,0,0,0-6.57,6.54c0,4.94,0,13.81,0,20.77V42.83q0,7.94,0,15.87a7.4,7.4,0,0,0,.1,1.39,6.31,6.31,0,0,0,6.45,5.27q9.72,0,19.44,0a7.63,7.63,0,0,0,1.48-.12,6.29,6.29,0,0,0,5.06-6.34V11.71A6.17,6.17,0,0,0,51.86,10.67ZM22.29,8.16a4.78,4.78,0,0,1,3.09-1.41c.44,0,.87,0,1.31,0H45.44a4.79,4.79,0,0,1,5,4.07,9.21,9.21,0,0,1,.05,1.9c0,.29,0,.58,0,.88v.26H20.93l0-.32C20.82,11.64,20.72,9.7,22.29,8.16ZM50.52,54.33a.72.72,0,0,1-.85.84H20.91V15.35H50.47l0,.41c0,.12,0,.24,0,.37v8.19C50.51,34.22,50.51,46.38,50.52,54.33Zm-2.87,9.06a5.62,5.62,0,0,1-2.22.47l-11,0H25.89a4.86,4.86,0,0,1-5.08-5.16v-2.1H50.29l.05.19A5.49,5.49,0,0,1,47.65,63.39Z"/><path class="cls-3" d="M35.63,61.17a1.28,1.28,0,0,1-1.28-1.31,1.3,1.3,0,0,1,1.31-1.28A1.33,1.33,0,0,1,37,59.89,1.3,1.3,0,0,1,35.63,61.17Z"/><path class="cls-4" d="M26.86,36.47l1.05.77L31.69,40c.14.1.33.19.38.33s.15.54,0,.67a1.08,1.08,0,0,1-.69.22c-.12,0-.27-.13-.39-.21l-5.35-3.85c-.66-.48-.66-.84,0-1.32L31,32c.11-.08.23-.22.33-.21.26,0,.6.06.74.23s0,.49-.08.71-.25.22-.38.32l-4.36,3.14Z"/><path class="cls-5" d="M44.45,36.45,39.7,33c-.12-.09-.25-.17-.37-.27a.6.6,0,1,1,.72-.95c.48.32.94.66,1.4,1l4.16,3c.68.49.68.83,0,1.32L40.26,41c-.13.1-.29.24-.43.23a.94.94,0,0,1-.64-.23.79.79,0,0,1,0-.64c.06-.15.26-.26.41-.37l4.48-3.23Z"/><path class="cls-3" d="M38.45,29.89c-.06.23-.09.38-.13.52L35.11,41.82c0,.1,0,.19-.08.29a.59.59,0,0,1-.75.44.57.57,0,0,1-.4-.8c.42-1.47.83-3,1.24-4.43.69-2.42,1.36-4.84,2.05-7.26a1,1,0,0,1,.31-.55.7.7,0,0,1,.6-.06C38.25,29.52,38.35,29.76,38.45,29.89Z"/></g></g></svg>