<svg xmlns="http://www.w3.org/2000/svg" xmlns:xlink="http://www.w3.org/1999/xlink" viewBox="0 0 70 70"><defs><style>.cls-1{fill:url(#Degradado_sin_nombre_6);}.cls-2{fill:none;}</style><linearGradient id="Degradado_sin_nombre_6" x1="7.3" y1="34.62" x2="63.22" y2="34.62" gradientUnits="userSpaceOnUse"><stop offset="0" stop-color="#e94b4f"/><stop offset="1" stop-color="#5865ad"/></linearGradient></defs><g id="Capa_2" data-name="Capa 2"><g id="Capa_1-2" data-name="Capa 1"><path class="cls-1" d="M61,31.77a2.9,2.9,0,0,0-3.4,1.53.85.85,0,0,1-.9.54H36.36V27.37h2.71c1.78,0,3.61,0,5.41,0a1.37,1.37,0,0,1,1.41.77,2.82,2.82,0,0,0,1.82,1.36A3.08,3.08,0,0,0,50.1,29a2.87,2.87,0,0,0,1.2-1.91,3,3,0,0,0-.61-2.33,2.84,2.84,0,0,0-2.55-1.13,3,3,0,0,0-2.42,1.67.79.79,0,0,1-.82.5h0c-2,0-4,0-6,0H36.35v-6h5.51a.9.9,0,0,0,.81-.38c.51-.65,1-1.31,1.56-1.94s.87-1.06,1.29-1.59a1,1,0,0,1,.87-.44h0c1.57,0,3.22,0,4.9,0a.91.91,0,0,1,1,.56,2.83,2.83,0,0,0,3.07,1.56,3,3,0,0,0,2.44-2.33,3,3,0,0,0-1.93-3.38,2.9,2.9,0,0,0-3.62,1.49.83.83,0,0,1-.88.52H45.5a.73.73,0,0,0-.65.32c-1.14,1.43-2.08,2.58-3,3.63a1.08,1.08,0,0,1-.75.37c-1.14,0-2.3,0-3.41,0h-.83l-.31,0h-.23v-.23c0-.1,0-.18,0-.26,0-.58,0-1.15,0-1.73,0-1.22,0-2.49,0-3.74a5.42,5.42,0,0,0-9.19-3.85.6.6,0,0,1-.76.14,7.09,7.09,0,0,0-10,6.82.65.65,0,0,1-.52.74,8.59,8.59,0,0,0-5.48,10.8.74.74,0,0,1-.24.8A9.18,9.18,0,0,0,7.67,36.9a9.22,9.22,0,0,0,6.72,6.77c.23.07.46.12.7.18l.35.08.1,0,0,.1a8.43,8.43,0,0,0,8.34,11.67h.1v.34c0,.15,0,.29,0,.43a6.19,6.19,0,0,0,12.38-.37c0-1.12,0-2.22,0-3.38,0-.52,0-1,0-1.58v-.1h4.81a1.14,1.14,0,0,1,.75.36l1.5,1.81c.49.61,1,1.24,1.52,1.85a.87.87,0,0,0,.61.28c1.92,0,3.9,0,5.88,0h0a.88.88,0,0,1,.89.54,2.87,2.87,0,0,0,3.17,1.56,3,3,0,0,0,2.35-2.31,3,3,0,0,0-1.91-3.39,2.94,2.94,0,0,0-3.66,1.52.76.76,0,0,1-.79.48c-1.75,0-3.47,0-5.11,0h0a.93.93,0,0,1-.8-.4c-1.13-1.42-2.07-2.57-3-3.63a.88.88,0,0,0-.6-.29c-1.14,0-2.3,0-3.42,0h-2.2v-6h2.73c1.7,0,3.45,0,5.18,0h.09a1.62,1.62,0,0,1,1.63.87,2.64,2.64,0,0,0,1.75,1.25,3.05,3.05,0,0,0,2.4-.52A2.94,2.94,0,0,0,50.78,41a2.86,2.86,0,0,0-2.58-1.25,3,3,0,0,0-2.5,1.71.7.7,0,0,1-.75.45H36.37V35.45H56.89a.69.69,0,0,1,.69.46,3,3,0,0,0,5.64-1.28A3,3,0,0,0,61,31.77ZM47.4,25.64a1.38,1.38,0,0,1,1-.41h0a1.36,1.36,0,1,1,0,2.71h0A1.39,1.39,0,0,1,47,26.6,1.36,1.36,0,0,1,47.4,25.64Zm7.51-12.32h0a1.36,1.36,0,0,1,0,2.72h0a1.38,1.38,0,0,1-1-.41,1.36,1.36,0,0,1,1-2.31ZM34.71,39.59V56a4.58,4.58,0,0,1-3.44,4.65,4.69,4.69,0,0,1-1.17.15,4.61,4.61,0,0,1-4.43-5.69c.09-.36.2-.71.31-1.08l.12-.4-.75.14a15,15,0,0,1-1.85.27,6.62,6.62,0,0,1-6.74-4.67,6.69,6.69,0,0,1,2.84-7.71l.47-.29.11-.07-.69-1.42A7.23,7.23,0,0,0,17,41.82a1.19,1.19,0,0,1-1.32.5,7.74,7.74,0,0,1-6.24-5.16,7.63,7.63,0,0,1,1.48-8A1.32,1.32,0,0,0,11,29c0-.05.05-.09.08-.15l.08-.12.08.12a8.7,8.7,0,0,0,7.18,4V31.27a7.09,7.09,0,0,1-6.89-6.95,6.92,6.92,0,0,1,5.15-6.83l.08,0,0,.08a7.12,7.12,0,0,0,3,3.5l.8-1.35A5.51,5.51,0,0,1,18,15.34a5.21,5.21,0,0,1,1.09-3.64A5.42,5.42,0,0,1,23,9.52a5.82,5.82,0,0,1,4.24,1.35l.1-.14.28-.43a3.81,3.81,0,0,1,7.1,2V39.59Zm20.2,13.65h0a1.32,1.32,0,0,1,1,.41,1.35,1.35,0,0,1,.37,1,1.32,1.32,0,0,1-1.35,1.31h0a1.33,1.33,0,0,1-1.33-1.39A1.33,1.33,0,0,1,54.91,53.24ZM47.39,41.75a1.4,1.4,0,0,1,1-.41h0a1.35,1.35,0,0,1,1,.42,1.33,1.33,0,0,1,.38,1,1.39,1.39,0,0,1-1.37,1.33h0A1.4,1.4,0,0,1,47,42.71,1.3,1.3,0,0,1,47.39,41.75ZM60.26,36h0a1.38,1.38,0,0,1-1.34-1.36,1.36,1.36,0,0,1,.41-1,1.33,1.33,0,0,1,1-.39,1.4,1.4,0,0,1,1,.42,1.35,1.35,0,0,1,.37,1A1.37,1.37,0,0,1,60.26,36Z"/><rect class="cls-2" width="70" height="70"/></g></g></svg>