<svg xmlns="http://www.w3.org/2000/svg" xmlns:xlink="http://www.w3.org/1999/xlink" viewBox="0 0 70 70"><defs><style>.cls-1{fill:url(#Degradado_sin_nombre_6);}.cls-2{fill:url(#Degradado_sin_nombre_6-2);}.cls-3{fill:none;}</style><linearGradient id="Degradado_sin_nombre_6" x1="8.08" y1="36.06" x2="62.44" y2="36.06" gradientUnits="userSpaceOnUse"><stop offset="0" stop-color="#e94b4f"/><stop offset="1" stop-color="#5865ad"/></linearGradient><linearGradient id="Degradado_sin_nombre_6-2" x1="9.11" y1="23.69" x2="60.79" y2="23.69" xlink:href="#Degradado_sin_nombre_6"/></defs><g id="Capa_2" data-name="Capa 2"><g id="Capa_1-2" data-name="Capa 1"><path class="cls-1" d="M61.79,52.44a3.49,3.49,0,0,0-.81-.07H58.74V18H56.93V52.33H52.84V24.93H51V52.32H46.94V33H45.12V52.32H41.06V27.74a1.45,1.45,0,0,0,0-.3H39.22V52.32H35.14V29.19H33.31V52.34H29.25V38.7H27.41V52.32H23.33v-13H21.54v13H17.45V39.76H15.61V52.32H11.53V46.09H9.72v6.23l-.6,0c-.66.06-1.06.44-1,1s.43.85,1.11.87H61.08c.24,0,.41,0,.59,0a.88.88,0,0,0,.76-.8A.84.84,0,0,0,61.79,52.44Z"/><path class="cls-2" d="M9.62,40.85a.94.94,0,0,0,1.22-.36l.84-1.11c1.21-1.61,2.42-3.22,3.62-4.85A1.2,1.2,0,0,1,16.56,34c1.29.17,2.67.34,4,.47h.1a7.18,7.18,0,0,0,2.07,0c1.21-.25,2.44-.55,3.62-.85l1.89-.47a1.27,1.27,0,0,0,1-.85c1-2.69,2.15-5.53,3.42-8.7a1.12,1.12,0,0,1,.72-.67l3.69-.58,3.15-.5a.94.94,0,0,1,1,.41c1.11,1.51,2.24,3,3.37,4.51a.93.93,0,0,0,1.2.4,1.78,1.78,0,0,0,.56-.59c2.88-4.5,6.74-10.38,11.07-16l.74-1,.7,2.07c0,.12.07.23.11.34a.94.94,0,0,0,1.2.72.81.81,0,0,0,.5-.4,1.08,1.08,0,0,0,0-.87c-.47-1.44-.95-2.87-1.43-4.31A.93.93,0,0,0,58,6.51C56.5,7,55.05,7.47,53.6,8a1.24,1.24,0,0,0-.43.25A.86.86,0,0,0,53,9.27a.88.88,0,0,0,1,.44c.32-.08.64-.18.92-.27l1.17-.36L45.32,24.63,45,24.26c-.06-.08-.14-.17-.21-.27l-.63-.83c-.7-.94-1.41-1.87-2.1-2.82A1.09,1.09,0,0,0,41,19.89l-2,.32c-2.16.34-4.32.68-6.49,1a1.32,1.32,0,0,0-1.16.93q-1,2.63-2,5.24c-.45,1.16-.91,2.31-1.36,3.47a1,1,0,0,1-.81.72c-1.29.28-2.28.53-3.19.79a7.87,7.87,0,0,1-3.54.25c-1-.16-2-.27-3.05-.37l-1.35-.15-.5,0a.84.84,0,0,0-.75.32c-1.74,2.3-3.58,4.74-5.39,7.2a.83.83,0,0,0-.15.68A.9.9,0,0,0,9.62,40.85Z"/><rect class="cls-3" width="70" height="70"/></g></g></svg>