<svg xmlns="http://www.w3.org/2000/svg" xmlns:xlink="http://www.w3.org/1999/xlink" viewBox="0 0 70 70"><defs><style>.cls-1{fill:none;}.cls-2{fill:url(#Degradado_sin_nombre_6);}.cls-3{fill:#5865ac;}.cls-4{fill:#a0587e;}</style><linearGradient id="Degradado_sin_nombre_6" x1="6.59" y1="35.17" x2="64.11" y2="35.17" gradientUnits="userSpaceOnUse"><stop offset="0" stop-color="#e94b4f"/><stop offset="1" stop-color="#5865ad"/></linearGradient></defs><g id="Capa_2" data-name="Capa 2"><g id="Capa_1-2" data-name="Capa 1"><rect class="cls-1" width="70" height="70"/><path class="cls-2" d="M48.06,46.78l3.44-6.19.31.52q4.77,8.6,9.53,17.17a.85.85,0,0,0,.9.52c.61,0,1.22,0,1.87,0v1.82H6.59V58.79c.72,0,1.44,0,2.16,0a.7.7,0,0,0,.51-.29q4.51-8.05,9-16.14l.09-.19a11.51,11.51,0,0,1-3.66-9.53,11.28,11.28,0,0,1,4-7.85A11.69,11.69,0,0,1,36,27.24V9.73H50.55c0,.16-.1.32-.16.48-.54,1.47-1.07,2.94-1.63,4.41a1.22,1.22,0,0,0,0,.92c.56,1.46,1.09,2.94,1.63,4.41.06.15.1.3.18.52H37.83V21c0,2.34,0,4.69,0,7a1.44,1.44,0,0,0,.14.65q5,8.94,9.93,17.88A1.73,1.73,0,0,0,48.06,46.78ZM22.7,38.13,11.25,58.75H52.56L42.85,41.28,40,44.18,36.83,41l-3.1,3.19-2.81-2.85c-2,3.59-4,7.17-6,10.77l-1.61-.9c.12-.21.2-.36.28-.52.95-1.71,1.91-3.41,2.84-5.13a.75.75,0,0,0,0-.6C25.26,42.72,24,40.48,22.7,38.13Zm5,5.16a2.8,2.8,0,0,0,.19-.28q3.6-6.46,7.17-12.93a.86.86,0,0,0,0-.65,9.64,9.64,0,0,0-9.59-5.51,9.26,9.26,0,0,0-8.22,6A9.39,9.39,0,0,0,19,40.13a3.22,3.22,0,0,0,.32.31l3.41-6.12ZM47.9,18.6a11.76,11.76,0,0,0-.62-1.68,3.63,3.63,0,0,1,0-3.66,13.88,13.88,0,0,0,.62-1.68h-10v7ZM59.51,58.79c-2.68-4.84-5.32-9.58-8-14.39-.8,1.44-1.55,2.77-2.28,4.12a.52.52,0,0,0,0,.44q2.64,4.78,5.31,9.57a.6.6,0,0,0,.36.25ZM39.93,41.47l1.94-1.95-5-8.94-5,8.93,2,2,3-3Z"/><path class="cls-3" d="M45.89,24.52v-1.8h7.59v1.8Z"/><path class="cls-4" d="M48.54,28.64v1.79H43.2V28.64Z"/><path class="cls-3" d="M58.65,24.51H55.7v-1.8h2.95Z"/></g></g></svg>