<svg xmlns="http://www.w3.org/2000/svg" xmlns:xlink="http://www.w3.org/1999/xlink" viewBox="0 0 118.28 50.6"><defs><style>.cls-1{fill:#121327;}.cls-2{fill:#e94b4f;}.cls-3{fill:url(#Degradado_sin_nombre_6);}</style><linearGradient id="Degradado_sin_nombre_6" x1="55.61" y1="13.33" x2="82.27" y2="13.33" gradientUnits="userSpaceOnUse"><stop offset="0" stop-color="#e94b4f"/><stop offset="1" stop-color="#5865ad"/></linearGradient></defs><g id="Capa_2" data-name="Capa 2"><g id="Capa_1-2" data-name="Capa 1"><path class="cls-1" d="M4.26,50.36H0V37.74H4.5q6.89,0,6.89,6.3A7.48,7.48,0,0,1,11,46.6a5.16,5.16,0,0,1-1.05,1.82,5.39,5.39,0,0,1-1.6,1.14,8.11,8.11,0,0,1-1.94.62A12,12,0,0,1,4.26,50.36ZM3,47.79h1.6a4.16,4.16,0,0,0,2.9-.89,3.72,3.72,0,0,0,1-2.86,3.59,3.59,0,0,0-1-2.83,4.68,4.68,0,0,0-3.07-.83H3Z"/><path class="cls-1" d="M12.4,50.36l5-12.71H20.3l5,12.71h-3l-.77-2H16l-.77,2Zm4.53-4.46h3.69l-1.84-4.74Z"/><path class="cls-1" d="M29.24,50.36v-10H25.05V37.74H36.41V40.4H32.2v10Z"/><path class="cls-1" d="M36.13,50.36l5-12.71H44l5,12.71h-3l-.77-2H39.73l-.77,2Zm4.53-4.46h3.7l-1.84-4.74Z"/><path class="cls-1" d="M55.87,50.36V37.74h5.76a5.69,5.69,0,0,1,3.58,1A3.81,3.81,0,0,1,66.56,42a4,4,0,0,1-1.38,3.32,5.72,5.72,0,0,1-3.71,1.11H58.75v3.92Zm2.88-6.29H61.4c1.47,0,2.2-.63,2.2-1.89s-.75-1.94-2.25-1.94h-2.6Z"/><path class="cls-1" d="M77.84,37.74H80.7V45.5a5.41,5.41,0,0,1-.3,1.81,5.14,5.14,0,0,1-.94,1.62,4.27,4.27,0,0,1-1.81,1.21,8.39,8.39,0,0,1-5.48,0,4.36,4.36,0,0,1-1.8-1.21,5.14,5.14,0,0,1-.94-1.62,5.41,5.41,0,0,1-.29-1.81V37.74h2.94v7.42C72.08,47.05,73,48,75,48s2.88-.94,2.88-2.83Z"/><path class="cls-1" d="M84.1,50.36V37.74h3V47.8h6v2.56Z"/><path class="cls-1" d="M100.84,50.56c-3,0-5.06-.7-6.21-2.11l2-1.82a5.47,5.47,0,0,0,4.13,1.46c1.66,0,2.49-.44,2.49-1.33a1,1,0,0,0-.62-1,7.61,7.61,0,0,0-2.09-.54c-.49-.07-.9-.14-1.25-.21s-.73-.18-1.17-.31A4.41,4.41,0,0,1,97,44.25a5.12,5.12,0,0,1-.83-.66,2.4,2.4,0,0,1-.59-1,3.87,3.87,0,0,1-.19-1.26,3.22,3.22,0,0,1,1.44-2.86,6.61,6.61,0,0,1,3.75-1,7.79,7.79,0,0,1,5.31,1.61l-1.82,2a4.6,4.6,0,0,0-1.54-.74,6.46,6.46,0,0,0-1.93-.29q-2.28,0-2.28,1.17a1,1,0,0,0,.62.95,8.68,8.68,0,0,0,2.22.53c.59.09,1.09.18,1.51.27a10,10,0,0,1,1.33.42,3.86,3.86,0,0,1,1.14.67,3.1,3.1,0,0,1,.72,1,3.54,3.54,0,0,1,.29,1.47,3.39,3.39,0,0,1-1.44,2.87A6.43,6.43,0,0,1,100.84,50.56Z"/><path class="cls-1" d="M109,50.36V37.74h9.19V40.4H112v2.41h5.72v2.37H112V47.8h6.32v2.56Z"/><path class="cls-2" d="M48.52,8.12a7.28,7.28,0,1,0,2.2,5.21A7.25,7.25,0,0,0,48.52,8.12Zm-5.1,8.68a3.47,3.47,0,1,1,3.48-3.47A3.47,3.47,0,0,1,43.42,16.8Z"/><path class="cls-3" d="M78.35,3.89a13.33,13.33,0,1,0,3.92,9.44A13.29,13.29,0,0,0,78.35,3.89ZM68.94,22.25a8.92,8.92,0,1,1,8.92-8.92A8.89,8.89,0,0,1,68.94,22.25Z"/></g></g></svg>