<svg xmlns="http://www.w3.org/2000/svg" xmlns:xlink="http://www.w3.org/1999/xlink" viewBox="0 0 247.28 45.31"><defs><style>.cls-1{fill:#121327;}.cls-2{fill:#e94b4f;}.cls-3{fill:url(#Degradado_sin_nombre_6);}</style><linearGradient id="Degradado_sin_nombre_6" x1="27.33" y1="18.69" x2="64.7" y2="18.69" gradientUnits="userSpaceOnUse"><stop offset="0" stop-color="#e94b4f"/><stop offset="1" stop-color="#5865ad"/></linearGradient></defs><g id="Capa_2" data-name="Capa 2"><g id="Capa_1-2" data-name="Capa 1"><path class="cls-1" d="M87.41,27.69h-6V10h6.3q9.67,0,9.67,8.83a10.76,10.76,0,0,1-.56,3.6A7.19,7.19,0,0,1,95.37,25a7.33,7.33,0,0,1-2.25,1.6,11.12,11.12,0,0,1-2.71.87A16.55,16.55,0,0,1,87.41,27.69Zm-1.84-3.6h2.24a5.81,5.81,0,0,0,4.07-1.25,5.2,5.2,0,0,0,1.35-4q0-2.79-1.35-4a6.49,6.49,0,0,0-4.31-1.17h-2Z"/><path class="cls-1" d="M98.82,27.69l7.07-17.81h4L117,27.69h-4.2l-1.07-2.79h-7.83l-1.08,2.79Zm6.35-6.25h5.18l-2.58-6.64Z"/><path class="cls-1" d="M122.43,27.69v-14h-5.87V10h15.92v3.72h-5.89v14Z"/><path class="cls-1" d="M132.1,27.69l7.07-17.81h4l7.07,17.81h-4.2L145,24.9h-7.83l-1.07,2.79Zm6.35-6.25h5.18l-2.57-6.64Z"/><path class="cls-1" d="M159.77,27.69V10h8.07a8,8,0,0,1,5,1.47,5.34,5.34,0,0,1,1.9,4.52,5.63,5.63,0,0,1-1.94,4.66,8.09,8.09,0,0,1-5.2,1.55h-3.82v5.49Zm4-8.81h3.72c2.06,0,3.08-.88,3.08-2.65s-1.05-2.72-3.15-2.72h-3.65Z"/><path class="cls-1" d="M190.57,10h4V20.89a7.58,7.58,0,0,1-.41,2.53,7.42,7.42,0,0,1-1.32,2.27,6,6,0,0,1-2.54,1.7,10.73,10.73,0,0,1-3.84.64,10.59,10.59,0,0,1-3.83-.64,6.07,6.07,0,0,1-2.54-1.7,7.26,7.26,0,0,1-1.73-4.8V10h4.13V20.41q0,4,4,4t4-4Z"/><path class="cls-1" d="M199.36,27.69V10h4.13V24.11h8.45v3.58Z"/><path class="cls-1" d="M222.83,28q-6.29,0-8.71-3l2.81-2.56a7.66,7.66,0,0,0,5.8,2.06c2.33,0,3.49-.63,3.49-1.87a1.44,1.44,0,0,0-.87-1.37,10.83,10.83,0,0,0-2.93-.75c-.68-.1-1.27-.2-1.75-.3s-1-.25-1.64-.43a6.14,6.14,0,0,1-1.52-.67,6.46,6.46,0,0,1-1.17-.93,3.28,3.28,0,0,1-.83-1.34,5.5,5.5,0,0,1-.27-1.78,4.51,4.51,0,0,1,2-4,9.3,9.3,0,0,1,5.25-1.36c3.26,0,5.75.75,7.45,2.25l-2.56,2.81a6.4,6.4,0,0,0-2.16-1,9.36,9.36,0,0,0-2.71-.4c-2.13,0-3.2.55-3.2,1.65a1.37,1.37,0,0,0,.88,1.33,12.52,12.52,0,0,0,3.11.74c.83.13,1.53.26,2.11.38a12.45,12.45,0,0,1,1.87.59,5.41,5.41,0,0,1,1.6.94,4.41,4.41,0,0,1,1,1.45,4.92,4.92,0,0,1,.41,2.06,4.78,4.78,0,0,1-2,4A9.07,9.07,0,0,1,222.83,28Z"/><path class="cls-1" d="M234.29,27.69V10h12.89v3.72h-8.76v3.39h8v3.32h-8v3.68h8.86v3.58Z"/><path class="cls-1" d="M162.59,37.07h1.13l3.21,8.15h-1.35L164.71,43h-3.14l-.85,2.21h-1.37Zm1.87,5-1.31-3.51-1.35,3.51Z"/><path class="cls-1" d="M172.21,39.48v5.74h-1.29V37.07h1L176.6,43V37.08h1.29v8.14h-1.06Z"/><path class="cls-1" d="M185.11,37.07h1.13l3.21,8.15H188.1L187.24,43h-3.15l-.85,2.21h-1.36Zm1.88,5-1.31-3.51-1.36,3.51Z"/><path class="cls-1" d="M193.45,45.22V37.07h1.29v7h4.37v1.13Z"/><path class="cls-1" d="M202.35,37.07l2.25,4.09,2.27-4.09h1.41l-3,5.24v2.91H204V42.29l-3-5.22Z"/><path class="cls-1" d="M218.26,38.21h-2.71v7h-1.3v-7h-2.72V37.07h6.73Z"/><path class="cls-1" d="M222.33,45.22V37.07h1.29v8.15Z"/><path class="cls-1" d="M227.93,41.09a4.25,4.25,0,0,1,1-2.77,4,4,0,0,1,1.25-.94,3.9,3.9,0,0,1,1.67-.35,3.51,3.51,0,0,1,1.9.49A3.14,3.14,0,0,1,235,38.81l-1,.67a2.31,2.31,0,0,0-.41-.62,2.24,2.24,0,0,0-.53-.4,2.19,2.19,0,0,0-.59-.21,3.21,3.21,0,0,0-.6-.06,2.3,2.3,0,0,0-1.13.26,2.54,2.54,0,0,0-.81.68,3.17,3.17,0,0,0-.49.95,3.56,3.56,0,0,0-.17,1.06,3.28,3.28,0,0,0,.2,1.13,3,3,0,0,0,.55,1,2.82,2.82,0,0,0,.83.66,2.31,2.31,0,0,0,1.05.24,2.68,2.68,0,0,0,.62-.07,2.42,2.42,0,0,0,.61-.24,2.63,2.63,0,0,0,.54-.42,2,2,0,0,0,.4-.61l1.07.61a2.38,2.38,0,0,1-.55.81,3.85,3.85,0,0,1-.8.59,4.57,4.57,0,0,1-.95.37,4.17,4.17,0,0,1-1,.12,3.46,3.46,0,0,1-1.58-.36A4.25,4.25,0,0,1,229,44a4.38,4.38,0,0,1-1.09-2.88Z"/><path class="cls-1" d="M244.1,39a2.08,2.08,0,0,0-.33-.27q-.22-.13-.51-.27a5.34,5.34,0,0,0-.64-.21,3.53,3.53,0,0,0-.72-.08,1.92,1.92,0,0,0-1.2.3,1,1,0,0,0-.39.83.91.91,0,0,0,.12.49,1.15,1.15,0,0,0,.38.33,2.67,2.67,0,0,0,.63.25c.25.08.55.15.88.24a10.17,10.17,0,0,1,1.12.33,3.1,3.1,0,0,1,.85.45,1.77,1.77,0,0,1,.53.65A2,2,0,0,1,245,43a2.23,2.23,0,0,1-.24,1.07,2,2,0,0,1-.64.73,2.63,2.63,0,0,1-.95.41,4.73,4.73,0,0,1-1.16.14,5.69,5.69,0,0,1-1.79-.29,5,5,0,0,1-1.57-.82l.59-1.1a2.15,2.15,0,0,0,.43.33,3,3,0,0,0,.65.34,5.92,5.92,0,0,0,.81.27,3.84,3.84,0,0,0,.91.11,2.16,2.16,0,0,0,1.17-.27,1,1,0,0,0,.26-1.3,1.55,1.55,0,0,0-.45-.36,4.42,4.42,0,0,0-.7-.28l-.94-.26a10.28,10.28,0,0,1-1.06-.34,2.69,2.69,0,0,1-.75-.43,1.69,1.69,0,0,1-.45-.59,1.88,1.88,0,0,1-.16-.82,2.44,2.44,0,0,1,.23-1.07,2.17,2.17,0,0,1,.63-.78,2.55,2.55,0,0,1,.93-.47,4,4,0,0,1,1.17-.16,4.24,4.24,0,0,1,1.53.26,5.1,5.1,0,0,1,1.23.65Z"/><path class="cls-2" d="M17.39,11.38a10.23,10.23,0,1,0,3.07,7.31A10.19,10.19,0,0,0,17.39,11.38ZM10.23,23.56a4.87,4.87,0,1,1,4.88-4.87A4.86,4.86,0,0,1,10.23,23.56Z"/><path class="cls-3" d="M59.21,5.46A18.68,18.68,0,1,0,64.7,18.69,18.58,18.58,0,0,0,59.21,5.46ZM46,31.19a12.5,12.5,0,1,1,12.5-12.5A12.49,12.49,0,0,1,46,31.19Z"/></g></g></svg>